<?xml version="1.0" encoding="UTF-8"?>
<!DOCTYPE svg PUBLIC "-//W3C//DTD SVG 1.1//EN" "http://www.w3.org/Graphics/SVG/1.1/DTD/svg11.dtd">
<svg xmlns="http://www.w3.org/2000/svg" version="1.1" width="364px" height="128px" style="shape-rendering:geometricPrecision; text-rendering:geometricPrecision; image-rendering:optimizeQuality; fill-rule:evenodd; clip-rule:evenodd" xmlns:xlink="http://www.w3.org/1999/xlink">
<g><path style="opacity:0.974" fill="#45438f" d="M 14.5,6.5 C 31.179,6.37754 47.8456,6.71087 64.5,7.5C 64.5,8.5 64.5,9.5 64.5,10.5C 47.5,10.5 30.5,10.5 13.5,10.5C 13.4326,9.04125 13.7659,7.70792 14.5,6.5 Z"/></g>
<g><path style="opacity:0.639" fill="#434568" d="M 73.5,12.5 C 73.5912,10.3023 72.9245,9.96895 71.5,11.5C 71.8212,9.95186 72.8212,9.28519 74.5,9.5C 74.7373,10.791 74.404,11.791 73.5,12.5 Z"/></g>
<g><path style="opacity:1" fill="#4f51bb" d="M 6.5,11.5 C 7.15403,30.8627 6.48736,49.8627 4.5,68.5C 3.50293,49.0071 3.1696,29.3404 3.5,9.5C 5.17876,9.28519 6.17876,9.95186 6.5,11.5 Z"/></g>
<g><path style="opacity:0.006" fill="#010101" d="M 8.5,11.5 C 9.75618,11.4614 10.7562,11.9614 11.5,13C 10.1068,14.1711 9.27346,15.6711 9,17.5C 8.50454,15.5273 8.33788,13.5273 8.5,11.5 Z"/></g>
<g><path style="opacity:0.998" fill="#3e41a5" d="M 73.5,12.5 C 73.5,12.8333 73.5,13.1667 73.5,13.5C 73.825,21.0191 73.4916,28.3524 72.5,35.5C 71.6723,29.8343 71.0056,24.0009 70.5,18C 71.0741,15.5359 71.4075,13.3692 71.5,11.5C 72.9245,9.96895 73.5912,10.3023 73.5,12.5 Z"/></g>
<g><path style="opacity:0.278" fill="#3c3433" d="M 73.5,13.5 C 74.3279,19.6534 74.8279,25.9867 75,32.5C 75.2784,33.4158 75.7784,34.0825 76.5,34.5C 85.4401,36.4722 94.7734,37.1389 104.5,36.5C 104.5,36.8333 104.5,37.1667 104.5,37.5C 94.8276,37.6665 85.1609,37.4998 75.5,37C 74.2625,36.7679 73.2625,36.2679 72.5,35.5C 73.4916,28.3524 73.825,21.0191 73.5,13.5 Z"/></g>
<g><path style="opacity:1" fill="#f47e2e" d="M 104.5,36.5 C 94.7734,37.1389 85.4401,36.4722 76.5,34.5C 76.4346,34.0618 76.6012,33.7284 77,33.5C 86.4786,33.8234 95.6452,34.8234 104.5,36.5 Z"/></g>
<g><path style="opacity:0.999" fill="#fe7f27" d="M 107.5,38.5 C 107.5,44.5 107.5,50.5 107.5,56.5C 106.833,56.5 106.167,56.5 105.5,56.5C 105.5,53.5 105.5,50.5 105.5,47.5C 104.945,43.9878 105.612,40.9878 107.5,38.5 Z"/></g>
<g><path style="opacity:0.06" fill="#0d0d0d" d="M 6.5,11.5 C 7.16653,16.6813 7.83319,22.0147 8.5,27.5C 9.3249,29.3596 10.3249,31.0262 11.5,32.5C 11.5,39.5 11.5,46.5 11.5,53.5C 10.2921,54.2341 8.95875,54.5674 7.5,54.5C 8.66299,59.805 9.66299,65.1384 10.5,70.5C 16.3795,71.7802 22.0461,71.4469 27.5,69.5C 29.0481,69.8212 29.7148,70.8212 29.5,72.5C 21.9809,72.175 14.6476,72.5084 7.5,73.5C 7.16667,73.5 6.83333,73.5 6.5,73.5C 6.63466,71.4458 5.96799,69.7791 4.5,68.5C 6.48736,49.8627 7.15403,30.8627 6.5,11.5 Z"/></g>
<g><path style="opacity:0.009" fill="#040404" d="M 107.5,38.5 C 108.207,44.0655 108.874,49.7322 109.5,55.5C 108.833,55.5 108.5,55.8333 108.5,56.5C 108.167,56.5 107.833,56.5 107.5,56.5C 107.5,50.5 107.5,44.5 107.5,38.5 Z"/></g>
<g><path style="opacity:0.525" fill="#4d453f" d="M 104.5,37.5 C 105.791,37.2627 106.791,37.596 107.5,38.5C 105.612,40.9878 104.945,43.9878 105.5,47.5C 104.978,49.2191 103.978,50.5525 102.5,51.5C 102.5,47.8333 102.5,44.1667 102.5,40.5C 103.29,41.6085 103.79,42.9419 104,44.5C 104.497,42.1902 104.663,39.8568 104.5,37.5 Z"/></g>
<g><path style="opacity:0.999" fill="#f8f7f6" d="M 105.5,56.5 C 106.167,56.5 106.833,56.5 107.5,56.5C 107.833,56.5 108.167,56.5 108.5,56.5C 108.5,56.8333 108.5,57.1667 108.5,57.5C 110.531,57.9724 112.198,58.9724 113.5,60.5C 110.167,60.5 106.833,60.5 103.5,60.5C 103.336,57.8127 103.503,55.146 104,52.5C 104.21,54.0581 104.71,55.3915 105.5,56.5 Z"/></g>
<g><path style="opacity:1" fill="#b19f93" d="M 105.5,47.5 C 105.5,50.5 105.5,53.5 105.5,56.5C 104.71,55.3915 104.21,54.0581 104,52.5C 103.503,55.146 103.336,57.8127 103.5,60.5C 102.523,57.7131 102.19,54.7131 102.5,51.5C 103.978,50.5525 104.978,49.2191 105.5,47.5 Z"/></g>
<g><path style="opacity:1" fill="#4849ae" d="M 109.5,55.5 C 118.017,55.1739 126.35,55.5073 134.5,56.5C 126.016,57.493 117.349,57.8264 108.5,57.5C 108.5,57.1667 108.5,56.8333 108.5,56.5C 108.5,55.8333 108.833,55.5 109.5,55.5 Z"/></g>
<g><path style="opacity:0.898" fill="#7072b7" d="M 134.5,56.5 C 135.043,56.56 135.376,56.8933 135.5,57.5C 134.675,58.3857 133.675,58.719 132.5,58.5C 126.824,58.3339 121.157,58.5006 115.5,59C 114.956,59.7172 114.289,60.2172 113.5,60.5C 112.198,58.9724 110.531,57.9724 108.5,57.5C 117.349,57.8264 126.016,57.493 134.5,56.5 Z"/></g>
<g><path style="opacity:0.999" fill="#b96833" d="M 211.5,58.5 C 212.9,59.0998 213.9,60.0998 214.5,61.5C 216.293,66.8767 218.293,72.2101 220.5,77.5C 220.267,78.9317 219.6,79.4317 218.5,79C 216.549,77.2658 215.549,75.0991 215.5,72.5C 209.873,71.9711 205.539,73.9711 202.5,78.5C 201.127,78.6567 199.793,78.49 198.5,78C 199.056,77.6174 199.389,77.1174 199.5,76.5C 203.141,70.2051 207.141,64.2051 211.5,58.5 Z M 211.5,64.5 C 212.931,65.7804 213.598,67.4471 213.5,69.5C 211.669,70.0522 210.003,70.0522 208.5,69.5C 209.26,67.6396 210.26,65.973 211.5,64.5 Z"/></g>
<g><path style="opacity:0.176" fill="#41352d" d="M 211.5,58.5 C 212.209,57.596 213.209,57.2627 214.5,57.5C 214.5,58.8333 214.5,60.1667 214.5,61.5C 213.9,60.0998 212.9,59.0998 211.5,58.5 Z"/></g>
<g><path style="opacity:0.999" fill="#cd7235" d="M 240.5,64.5 C 239.833,63.1667 239.167,61.8333 238.5,60.5C 236.5,60.8333 234.5,61.1667 232.5,61.5C 230.302,61.5912 229.969,60.9245 231.5,59.5C 234.137,57.5726 237.137,57.0726 240.5,58C 241.811,60.2735 241.811,62.4402 240.5,64.5 Z"/></g>
<g><path style="opacity:0.616" fill="#7a5a44" d="M 296.5,58.5 C 295.1,59.1001 294.1,60.1001 293.5,61.5C 292.596,60.791 292.263,59.791 292.5,58.5C 293.833,58.5 295.167,58.5 296.5,58.5 Z"/></g>
<g><path style="opacity:1" fill="#c36d34" d="M 304.5,60.5 C 301.813,60.3359 299.146,60.5026 296.5,61C 295.62,62.3561 295.286,63.8561 295.5,65.5C 295.962,66.8799 296.962,67.5466 298.5,67.5C 301.344,66.0803 304.011,66.2469 306.5,68C 303.017,69.5873 299.35,70.754 295.5,71.5C 295.137,72.1835 294.804,72.8501 294.5,73.5C 293.596,74.209 293.263,75.209 293.5,76.5C 295.415,76.7845 297.081,76.4511 298.5,75.5C 301.978,74.0634 305.311,74.23 308.5,76C 307.833,76.6667 307.167,77.3333 306.5,78C 301.514,78.9164 296.514,79.2497 291.5,79C 291.162,73.1729 291.829,67.3396 293.5,61.5C 294.1,60.1001 295.1,59.1001 296.5,58.5C 300.146,57.7166 303.812,57.5499 307.5,58C 308.833,58.6667 308.833,59.3333 307.5,60C 306.552,60.4828 305.552,60.6495 304.5,60.5 Z"/></g>
<g><path style="opacity:1" fill="#ba6a34" d="M 327.5,62.5 C 329.262,61.7377 330.262,60.4044 330.5,58.5C 331.5,58.5 332.5,58.5 333.5,58.5C 333.5,59.5 333.5,60.5 333.5,61.5C 333.184,66.8444 332.684,72.1778 332,77.5C 330.291,80.0793 329.124,79.746 328.5,76.5C 329.523,72.1828 330.023,67.8494 330,63.5C 327.298,67.3666 324.131,70.7 320.5,73.5C 318.447,72.0606 317.447,70.0606 317.5,67.5C 317.688,65.8967 317.188,64.5634 316,63.5C 315.536,64.0944 315.369,64.7611 315.5,65.5C 314.512,69.7889 313.679,74.1222 313,78.5C 310.875,79.8515 309.708,79.1848 309.5,76.5C 311.313,70.5796 312.813,64.5796 314,58.5C 315.011,57.6634 316.178,57.33 317.5,57.5C 318.432,61.2938 319.765,64.9605 321.5,68.5C 323.161,66.1728 325.161,64.1728 327.5,62.5 Z"/></g>
<g><path style="opacity:0.435" fill="#574437" d="M 330.5,58.5 C 331.568,57.5655 332.901,57.2322 334.5,57.5C 334.768,59.099 334.434,60.4324 333.5,61.5C 333.5,60.5 333.5,59.5 333.5,58.5C 332.5,58.5 331.5,58.5 330.5,58.5 Z"/></g>
<g><path style="opacity:0.999" fill="#bb6933" d="M 352.5,54.5 C 353.5,54.5 354.5,54.5 355.5,54.5C 355.657,55.8734 355.49,57.2068 355,58.5C 348.407,63.9258 345.573,70.9258 346.5,79.5C 345.5,79.5 344.5,79.5 343.5,79.5C 343.249,76.091 343.583,72.7577 344.5,69.5C 342.517,67.0163 340.35,64.6829 338,62.5C 336.991,60.9751 336.491,59.3084 336.5,57.5C 337.552,57.3505 338.552,57.5172 339.5,58C 341.452,60.0739 343.285,62.2406 345,64.5C 347.717,61.2896 350.217,57.9563 352.5,54.5 Z"/></g>
<g><path style="opacity:0.694" fill="#865c40" d="M 148.5,58.5 C 149.209,57.596 150.209,57.2627 151.5,57.5C 151.795,59.7354 151.461,61.7354 150.5,63.5C 150.923,61.2188 150.256,59.5521 148.5,58.5 Z"/></g>
<g><path style="opacity:0.999" fill="#c06b33" d="M 179.5,59.5 C 179.672,60.4916 179.338,61.1583 178.5,61.5C 175.833,61.5 173.167,61.5 170.5,61.5C 170.218,65.574 169.552,69.574 168.5,73.5C 169.167,74.8333 169.833,76.1667 170.5,77.5C 168.99,78.7279 167.49,78.7279 166,77.5C 165.898,71.1749 166.065,64.8416 166.5,58.5C 170.864,58.5773 175.197,58.9106 179.5,59.5 Z"/></g>
<g><path style="opacity:0.999" fill="#cc6e30" d="M 274.5,59.5 C 276.857,59.3367 279.19,59.5034 281.5,60C 278.964,60.1862 276.631,60.6862 274.5,61.5C 273.883,61.6107 273.383,61.944 273,62.5C 272.728,65.2538 272.228,67.9205 271.5,70.5C 270.566,71.5676 270.232,72.901 270.5,74.5C 273.248,74.4017 273.914,75.4017 272.5,77.5C 271.116,78.8009 269.616,78.8009 268,77.5C 267.278,74.7395 267.445,72.0728 268.5,69.5C 270.157,66.9107 270.491,64.2441 269.5,61.5C 268.226,60.8106 268.226,59.9772 269.5,59C 271.265,58.3603 272.932,58.5269 274.5,59.5 Z"/></g>
<g><path style="opacity:0.359" fill="#544338" d="M 304.5,60.5 C 302.302,61.1653 299.969,61.8319 297.5,62.5C 297.058,63.7387 296.391,64.7387 295.5,65.5C 295.286,63.8561 295.62,62.3561 296.5,61C 299.146,60.5026 301.813,60.3359 304.5,60.5 Z"/></g>
<g><path style="opacity:0.694" fill="#734f35" d="M 330.5,58.5 C 330.262,60.4044 329.262,61.7377 327.5,62.5C 327.738,60.5956 328.738,59.2623 330.5,58.5 Z"/></g>
<g><path style="opacity:0.306" fill="#54443a" d="M 238.5,60.5 C 239.167,61.8333 239.833,63.1667 240.5,64.5C 240.44,65.0431 240.107,65.3764 239.5,65.5C 238.548,63.9547 238.215,62.288 238.5,60.5 Z"/></g>
<g><path style="opacity:1" fill="#5455b9" d="M 134.5,62.5 C 135.167,62.5 135.833,62.5 136.5,62.5C 136.918,79.4031 137.585,96.2364 138.5,113C 137.944,113.383 137.611,113.883 137.5,114.5C 135.777,110.885 134.777,106.885 134.5,102.5C 134.5,101.833 134.5,101.167 134.5,100.5C 134.5,92.8333 134.5,85.1667 134.5,77.5C 134.5,72.5 134.5,67.5 134.5,62.5 Z"/></g>
<g><path style="opacity:1" fill="#a25d30" d="M 231.5,59.5 C 229.969,60.9245 230.302,61.5912 232.5,61.5C 230.469,64.1905 228.469,66.8571 226.5,69.5C 226.869,67.0065 226.203,66.3398 224.5,67.5C 225.431,63.5713 227.764,60.9047 231.5,59.5 Z"/></g>
<g><path style="opacity:0.8" fill="#161116" d="M 102.5,40.5 C 102.5,44.1667 102.5,47.8333 102.5,51.5C 102.19,54.7131 102.523,57.7131 103.5,60.5C 106.833,60.5 110.167,60.5 113.5,60.5C 114.289,60.2172 114.956,59.7172 115.5,59C 121.157,58.5006 126.824,58.3339 132.5,58.5C 132.5,59.5 132.5,60.5 132.5,61.5C 134.099,61.2322 135.432,61.5655 136.5,62.5C 135.833,62.5 135.167,62.5 134.5,62.5C 132.839,64.489 131.672,66.8223 131,69.5C 130.333,81.8333 130.333,94.1667 131,106.5C 131.333,104.833 131.667,103.167 132,101.5C 132.671,102.252 133.504,102.586 134.5,102.5C 134.777,106.885 135.777,110.885 137.5,114.5C 136.432,115.434 135.099,115.768 133.5,115.5C 133.5,116.5 133.5,117.5 133.5,118.5C 115.5,118.5 97.5,118.5 79.5,118.5C 81.2835,117.545 83.2835,116.878 85.5,116.5C 92.8062,117.133 100.14,117.466 107.5,117.5C 115.241,117.616 122.907,117.116 130.5,116C 123.635,114.094 116.802,114.261 110,116.5C 107.865,115.873 105.698,115.373 103.5,115C 94.5,114.667 85.5,114.333 76.5,114C 75.9558,113.283 75.2891,112.783 74.5,112.5C 76.1637,107.343 76.8304,102.01 76.5,96.5C 72.1667,96.5 67.8333,96.5 63.5,96.5C 56.2393,96.1263 49.0727,95.1263 42,93.5C 41.3021,94.6906 40.4687,95.6906 39.5,96.5C 39.1667,96.5 38.8333,96.5 38.5,96.5C 38.5,94.8333 38.5,93.1667 38.5,91.5C 40.3489,87.5773 40.6822,83.5773 39.5,79.5C 39.5,78.8333 39.1667,78.5 38.5,78.5C 37.1667,78.5 36.5,79.1667 36.5,80.5C 35.1103,79.1007 34.1103,77.4341 33.5,75.5C 34.9778,75.762 36.3112,75.4287 37.5,74.5C 37.3764,73.8933 37.0431,73.56 36.5,73.5C 36.5,73.1667 36.5,72.8333 36.5,72.5C 38.3146,73.6298 40.3146,74.2964 42.5,74.5C 42.5,72.8333 42.5,71.1667 42.5,69.5C 36.8333,68.1667 31.1667,68.1667 25.5,69.5C 20.8592,68.8734 16.1925,68.5401 11.5,68.5C 11.5,63.5 11.5,58.5 11.5,53.5C 11.5,46.5 11.5,39.5 11.5,32.5C 12.002,27.2412 12.002,22.0745 11.5,17C 13.8455,14.8786 16.6788,13.712 20,13.5C 35.4878,14.2249 50.9878,14.8915 66.5,15.5C 66.5,23.5 66.5,31.5 66.5,39.5C 78.6783,39.1716 90.6783,39.5049 102.5,40.5 Z"/></g>
<g><path style="opacity:1" fill="#3d45c2" d="M 90.5,108.5 C 92.78,110.223 95.4467,110.889 98.5,110.5C 98.7564,108.208 98.4231,106.041 97.5,104C 106.174,106.499 115.174,107.666 124.5,107.5C 125.812,96.6009 122.479,87.4342 114.5,80C 113.255,79.2086 111.922,78.7086 110.5,78.5C 110.389,77.8826 110.056,77.3826 109.5,77C 122.848,78.7059 124.682,75.2059 115,66.5C 114.911,64.8866 115.745,63.7199 117.5,63C 121.152,62.5014 124.818,62.3347 128.5,62.5C 128.5,79.1667 128.5,95.8333 128.5,112.5C 111.833,112.5 95.1667,112.5 78.5,112.5C 78.281,111.325 78.6143,110.325 79.5,109.5C 80.7362,110.246 82.0695,110.579 83.5,110.5C 83.3367,108.143 83.5034,105.81 84,103.5C 85.7772,105.79 87.9438,107.457 90.5,108.5 Z"/></g>
<g><path style="opacity:1" fill="#8b1a1e" d="M 110.5,64.5 C 110.639,62.663 111.306,62.3296 112.5,63.5C 112.043,64.2975 111.376,64.6309 110.5,64.5 Z"/></g>
<g><path style="opacity:1" fill="#d81b22" d="M 18.5,64.5 C 19.3775,61.7133 21.3775,60.38 24.5,60.5C 30.7501,62.0094 37.0834,63.0094 43.5,63.5C 43.5,64.8333 43.5,66.1667 43.5,67.5C 37.1579,67.6662 30.8246,67.4995 24.5,67C 22.5932,65.878 20.5932,65.0447 18.5,64.5 Z"/></g>
<g><path style="opacity:1" fill="#3d170e" d="M 44.5,41.5 C 44.8333,41.5 45.1667,41.5 45.5,41.5C 45.5,48.1667 45.5,54.8333 45.5,61.5C 45.1667,61.5 44.8333,61.5 44.5,61.5C 44.6495,60.448 44.4828,59.448 44,58.5C 39.7583,57.3993 36.5916,55.066 34.5,51.5C 37.1959,53.2696 40.0292,54.9363 43,56.5C 44.4121,51.4379 44.9121,46.4379 44.5,41.5 Z"/></g>
<g><path style="opacity:1" fill="#f67d2a" d="M 100.5,62.5 C 100.5,73.1667 100.5,83.8333 100.5,94.5C 93.8333,94.5 87.1667,94.5 80.5,94.5C 76.1667,94.5 71.8333,94.5 67.5,94.5C 69.9479,93.5269 72.6146,93.1936 75.5,93.5C 75.5,91.8333 75.5,90.1667 75.5,88.5C 74.5,88.5 73.5,88.5 72.5,88.5C 72.3614,85.4121 71.3614,82.7454 69.5,80.5C 68.1667,80.5 66.8333,80.5 65.5,80.5C 65.5,82.1667 65.5,83.8333 65.5,85.5C 64.0222,85.238 62.6888,85.5713 61.5,86.5C 58.58,90.4822 54.9133,91.8156 50.5,90.5C 53.1123,89.6295 55.779,88.9628 58.5,88.5C 60.3076,82.2524 62.8076,76.2524 66,70.5C 70.647,78.4754 76.647,85.1421 84,90.5C 88.6698,88.2646 89.1698,85.5979 85.5,82.5C 84.549,83.3256 83.549,83.4922 82.5,83C 80.8333,80.6667 79.1667,78.3333 77.5,76C 89.3848,72.049 93.7181,64.2157 90.5,52.5C 91.5676,51.5655 92.901,51.2322 94.5,51.5C 94.9518,55.1629 95.4518,58.8296 96,62.5C 97.4902,63.7279 98.9902,63.7279 100.5,62.5 Z"/></g>
<g><path style="opacity:1" fill="#d71b23" d="M 34.5,51.5 C 36.5916,55.066 39.7583,57.3993 44,58.5C 44.4828,59.448 44.6495,60.448 44.5,61.5C 36.109,62.9727 28.609,60.9727 22,55.5C 20.5886,53.3496 19.7553,51.0163 19.5,48.5C 23.1817,48.3347 26.8484,48.5014 30.5,49C 31.4709,50.4813 32.8042,51.3146 34.5,51.5 Z"/></g>
<g><path style="opacity:1" fill="#f98230" d="M 45.5,41.5 C 63.8675,41.2058 82.2008,41.5391 100.5,42.5C 100.5,46.5 100.5,50.5 100.5,54.5C 100.5,57.1667 100.5,59.8333 100.5,62.5C 98.9902,63.7279 97.4902,63.7279 96,62.5C 95.4518,58.8296 94.9518,55.1629 94.5,51.5C 92.901,51.2322 91.5676,51.5655 90.5,52.5C 88.4726,50.8196 86.1392,49.6529 83.5,49C 78.1667,48.3333 72.8333,48.3333 67.5,49C 62.3145,61.8675 56.4812,74.3675 50,86.5C 49.235,88.0657 49.4017,89.3991 50.5,90.5C 54.9133,91.8156 58.58,90.4822 61.5,86.5C 62.6888,85.5713 64.0222,85.238 65.5,85.5C 65.5,83.8333 65.5,82.1667 65.5,80.5C 66.8333,80.5 68.1667,80.5 69.5,80.5C 71.3614,82.7454 72.3614,85.4121 72.5,88.5C 73.5,88.5 74.5,88.5 75.5,88.5C 75.5,90.1667 75.5,91.8333 75.5,93.5C 72.6146,93.1936 69.9479,93.5269 67.5,94.5C 66.5,94.5 65.5,94.5 64.5,94.5C 58.3554,93.5098 52.0221,93.1765 45.5,93.5C 45.5,82.8333 45.5,72.1667 45.5,61.5C 45.5,54.8333 45.5,48.1667 45.5,41.5 Z"/></g>
<g><path style="opacity:1" fill="#c3181f" d="M 44.5,30.5 C 47.1606,33.1708 49.4939,36.1708 51.5,39.5C 49.0312,40.1681 46.6979,40.8347 44.5,41.5C 44.9121,46.4379 44.4121,51.4379 43,56.5C 40.0292,54.9363 37.1959,53.2696 34.5,51.5C 34.1667,50.8333 33.8333,50.1667 33.5,49.5C 35.7638,50.2186 38.0971,50.552 40.5,50.5C 41.0209,46.5191 41.3542,42.5191 41.5,38.5C 43.1667,38.5 44.8333,38.5 46.5,38.5C 46.4162,35.6726 45.7496,33.006 44.5,30.5 Z"/></g>
<g><path style="opacity:1" fill="#db1f26" d="M 59.5,24.5 C 60.7942,25.2899 61.9609,26.2899 63,27.5C 63.499,31.8206 63.6657,36.1539 63.5,40.5C 61.5,40.5 59.5,40.5 57.5,40.5C 57.5182,35.0441 58.1849,29.7108 59.5,24.5 Z"/></g>
<g><path style="opacity:1" fill="#d51c23" d="M 45.5,21.5 C 53.4617,24.949 56.9617,30.949 56,39.5C 54.9887,40.3366 53.8221,40.67 52.5,40.5C 51.4775,36.2761 49.3108,32.6094 46,29.5C 45.5026,26.854 45.3359,24.1873 45.5,21.5 Z"/></g>
<g><path style="opacity:1" fill="#e81d25" d="M 39.5,27.5 C 41.3684,28.2632 43.0351,29.2632 44.5,30.5C 45.7496,33.006 46.4162,35.6726 46.5,38.5C 44.8333,38.5 43.1667,38.5 41.5,38.5C 41.3542,42.5191 41.0209,46.5191 40.5,50.5C 38.0971,50.552 35.7638,50.2186 33.5,49.5C 30.7523,47.0698 28.7523,44.0698 27.5,40.5C 25.9542,36.2721 25.1208,31.9388 25,27.5C 29.7638,26.6077 34.5971,26.6077 39.5,27.5 Z"/></g>
<g><path style="opacity:1" fill="#3d45c2" d="M 25.5,22.5 C 23.5615,20.8372 21.2282,20.1706 18.5,20.5C 18.1706,23.2282 18.8372,25.5615 20.5,27.5C 22.008,34.1742 24.3413,40.5076 27.5,46.5C 24.1194,46.4595 20.7861,46.7929 17.5,47.5C 17.8033,51.7742 19.47,55.4408 22.5,58.5C 20.2902,59.7661 18.2902,61.2661 16.5,63C 16.8361,64.0299 17.5028,64.5299 18.5,64.5C 17.8166,66.1765 16.4832,66.8432 14.5,66.5C 14.5,49.8333 14.5,33.1667 14.5,16.5C 31.1553,17.2654 47.8219,17.5988 64.5,17.5C 64.6641,20.1873 64.4974,22.854 64,25.5C 62.7367,23.2031 60.9034,22.3698 58.5,23C 57.8903,24.9472 57.0569,26.7806 56,28.5C 53.0727,23.6334 48.906,20.6334 43.5,19.5C 43.6641,22.1873 43.4974,24.854 43,27.5C 41.4207,25.9588 39.5873,24.7922 37.5,24C 33.4899,23.4987 29.4899,22.9987 25.5,22.5 Z"/></g>
<g><path style="opacity:1" fill="#b9191f" d="M 25.5,22.5 C 30.2561,23.9178 34.9227,25.5845 39.5,27.5C 34.5971,26.6077 29.7638,26.6077 25,27.5C 25.1208,31.9388 25.9542,36.2721 27.5,40.5C 24.9123,36.326 22.579,31.9926 20.5,27.5C 20.5,25.8333 20.5,24.1667 20.5,22.5C 22.1667,22.5 23.8333,22.5 25.5,22.5 Z"/></g>
<g><path style="opacity:1" fill="#070512" d="M 25.5,22.5 C 23.8333,22.5 22.1667,22.5 20.5,22.5C 20.5,24.1667 20.5,25.8333 20.5,27.5C 18.8372,25.5615 18.1706,23.2282 18.5,20.5C 21.2282,20.1706 23.5615,20.8372 25.5,22.5 Z"/></g>
<g><path style="opacity:0.949" fill="#99603b" d="M 269.5,61.5 C 270.491,64.2441 270.157,66.9107 268.5,69.5C 268.575,66.7938 268.908,64.1272 269.5,61.5 Z"/></g>
<g><path style="opacity:1" fill="#dd1e25" d="M 110.5,64.5 C 113.829,66.8336 116.496,69.8336 118.5,73.5C 116.333,73.8333 114.167,74.1667 112,74.5C 108.523,74.6725 105.356,74.0058 102.5,72.5C 102.5,69.5 102.5,66.5 102.5,63.5C 102.735,62.9033 103.235,62.5699 104,62.5C 106.154,63.2741 108.321,63.9408 110.5,64.5 Z"/></g>
<g><path style="opacity:0.361" fill="#574539" d="M 317.5,67.5 C 316.833,66.8333 316.167,66.1667 315.5,65.5C 315.369,64.7611 315.536,64.0944 316,63.5C 317.188,64.5634 317.688,65.8967 317.5,67.5 Z"/></g>
<g><path style="opacity:1" fill="#7d7d90" d="M 25.5,69.5 C 31.1667,68.1667 36.8333,68.1667 42.5,69.5C 38.5,69.5 34.5,69.5 30.5,69.5C 30.5,70.5 30.5,71.5 30.5,72.5C 32.5,72.5 34.5,72.5 36.5,72.5C 36.5,72.8333 36.5,73.1667 36.5,73.5C 26.8333,73.5 17.1667,73.5 7.5,73.5C 14.6476,72.5084 21.9809,72.175 29.5,72.5C 29.7148,70.8212 29.0481,69.8212 27.5,69.5C 26.8333,69.5 26.1667,69.5 25.5,69.5 Z"/></g>
<g><path style="opacity:1" fill="#18130f" d="M 90.5,52.5 C 93.7181,64.2157 89.3848,72.049 77.5,76C 79.1667,78.3333 80.8333,80.6667 82.5,83C 83.549,83.4922 84.549,83.3256 85.5,82.5C 89.1698,85.5979 88.6698,88.2646 84,90.5C 76.647,85.1421 70.647,78.4754 66,70.5C 62.8076,76.2524 60.3076,82.2524 58.5,88.5C 55.779,88.9628 53.1123,89.6295 50.5,90.5C 49.4017,89.3991 49.235,88.0657 50,86.5C 56.4812,74.3675 62.3145,61.8675 67.5,49C 72.8333,48.3333 78.1667,48.3333 83.5,49C 86.1392,49.6529 88.4726,50.8196 90.5,52.5 Z"/></g>
<g><path style="opacity:1" fill="#b5b4b4" d="M 68.5,50.5 C 73.8437,50.334 79.1771,50.5006 84.5,51C 91.1608,54.7589 92.3275,59.9256 88,66.5C 86.5,68 85,69.5 83.5,71C 80.3986,71.8549 77.7319,73.3549 75.5,75.5C 77.3364,78.8273 78.8364,82.1606 80,85.5C 75.9229,81.2576 72.4229,76.5909 69.5,71.5C 77.0561,70.4771 82.8894,66.8104 87,60.5C 88.0559,55.876 86.2226,53.0427 81.5,52C 78.1832,51.5017 74.8499,51.335 71.5,51.5C 67.3121,62.2196 62.8121,72.8863 58,83.5C 57.0813,86.6439 55.2479,87.6439 52.5,86.5C 58.8047,74.9146 64.138,62.9146 68.5,50.5 Z"/></g>
<g><path style="opacity:1" fill="#ed7828" d="M 72.5,53.5 C 75.8499,53.335 79.1832,53.5017 82.5,54C 83.8993,55.0616 84.8993,56.395 85.5,58C 82.0915,65.8729 76.0915,69.3729 67.5,68.5C 68.9858,63.3761 70.6524,58.3761 72.5,53.5 Z"/></g>
<g><path style="opacity:1" fill="#c56e35" d="M 226.5,69.5 C 225.185,74.836 227.185,77.5026 232.5,77.5C 234.993,77.1307 235.66,77.7973 234.5,79.5C 224.187,81.1924 220.854,77.1924 224.5,67.5C 226.203,66.3398 226.869,67.0065 226.5,69.5 Z"/></g>
<g><path style="opacity:0.999" fill="#ececec" d="M 42.5,69.5 C 42.5,71.1667 42.5,72.8333 42.5,74.5C 40.3146,74.2964 38.3146,73.6298 36.5,72.5C 34.5,72.5 32.5,72.5 30.5,72.5C 30.5,71.5 30.5,70.5 30.5,69.5C 34.5,69.5 38.5,69.5 42.5,69.5 Z"/></g>
<g><path style="opacity:1" fill="#57240e" d="M 100.5,54.5 C 101.167,57.5 101.833,60.5 102.5,63.5C 102.5,66.5 102.5,69.5 102.5,72.5C 101.167,73.5 101.167,74.5 102.5,75.5C 102.5,78.1667 102.5,80.8333 102.5,83.5C 101.833,87.1667 101.167,90.8333 100.5,94.5C 100.5,83.8333 100.5,73.1667 100.5,62.5C 100.5,59.8333 100.5,57.1667 100.5,54.5 Z"/></g>
<g><path style="opacity:1" fill="#bb6a34" d="M 260.5,73.5 C 260.427,75.0269 261.094,76.0269 262.5,76.5C 263.338,76.8417 263.672,77.5084 263.5,78.5C 262.167,78.1667 260.833,77.8333 259.5,77.5C 256.499,71.9317 252.166,70.9317 246.5,74.5C 245.444,76.6458 243.944,78.3125 242,79.5C 240.251,79.2517 239.418,78.2517 239.5,76.5C 244.709,71.1049 249.209,65.1049 253,58.5C 254.011,57.6634 255.178,57.33 256.5,57.5C 257.008,61.1974 257.674,64.8641 258.5,68.5C 259.978,68.238 261.311,68.5713 262.5,69.5C 261.37,70.6223 260.703,71.9557 260.5,73.5 Z M 253.5,63.5 C 254.224,65.2184 254.891,67.0517 255.5,69C 253.55,70.4961 251.55,70.6627 249.5,69.5C 250.844,67.4714 252.177,65.4714 253.5,63.5 Z"/></g>
<g><path style="opacity:1" fill="#a96335" d="M 274.5,59.5 C 278.885,57.906 283.051,58.5727 287,61.5C 289.422,65.8884 288.589,69.555 284.5,72.5C 280.638,74.5632 276.638,76.2298 272.5,77.5C 273.914,75.4017 273.248,74.4017 270.5,74.5C 270.232,72.901 270.566,71.5676 271.5,70.5C 271.5,71.5 271.5,72.5 271.5,73.5C 274.89,72.9767 278.223,72.1434 281.5,71C 284.227,68.7592 284.894,66.0926 283.5,63C 280.649,61.7114 277.649,61.2114 274.5,61.5C 276.631,60.6862 278.964,60.1862 281.5,60C 279.19,59.5034 276.857,59.3367 274.5,59.5 Z"/></g>
<g><path style="opacity:1" fill="#4b4fbb" d="M 6.5,73.5 C 6.83333,73.5 7.16667,73.5 7.5,73.5C 17.1667,73.5 26.8333,73.5 36.5,73.5C 37.0431,73.56 37.3764,73.8933 37.5,74.5C 36.3112,75.4287 34.9778,75.762 33.5,75.5C 24.7786,75.1956 16.112,75.5289 7.5,76.5C 6.61432,75.675 6.28099,74.675 6.5,73.5 Z"/></g>
<g><path style="opacity:0.118" fill="#534134" d="M 150.5,66.5 C 150.5,69.1667 150.5,71.8333 150.5,74.5C 151.5,74.5 152.5,74.5 153.5,74.5C 152.432,75.4345 151.099,75.7678 149.5,75.5C 149.19,72.2869 149.523,69.2869 150.5,66.5 Z"/></g>
<g><path style="opacity:0.995" fill="#c2692f" d="M 148.5,58.5 C 150.256,59.5521 150.923,61.2188 150.5,63.5C 150.5,64.5 150.5,65.5 150.5,66.5C 149.523,69.2869 149.19,72.2869 149.5,75.5C 151.099,75.7678 152.432,75.4345 153.5,74.5C 155.92,74.7076 158.253,74.3742 160.5,73.5C 162.488,74.2888 162.821,75.4555 161.5,77C 156.166,77.5668 150.833,78.0668 145.5,78.5C 146.647,71.844 147.647,65.1774 148.5,58.5 Z"/></g>
<g><path style="opacity:0.988" fill="#ad6230" d="M 179.5,59.5 C 181.117,60.038 182.784,60.3713 184.5,60.5C 186.865,66.5305 185.198,71.0305 179.5,74C 176.511,75.2727 173.511,76.4394 170.5,77.5C 169.833,76.1667 169.167,74.8333 168.5,73.5C 172.85,73.1611 176.85,71.8278 180.5,69.5C 183.337,66.0052 182.67,63.3385 178.5,61.5C 179.338,61.1583 179.672,60.4916 179.5,59.5 Z"/></g>
<g><path style="opacity:0.718" fill="#714d35" d="M 260.5,73.5 C 261.906,73.9731 262.573,74.9731 262.5,76.5C 261.094,76.0269 260.427,75.0269 260.5,73.5 Z"/></g>
<g><path style="opacity:0.192" fill="#614a3b" d="M 294.5,73.5 C 295.183,75.1765 296.517,75.8432 298.5,75.5C 297.081,76.4511 295.415,76.7845 293.5,76.5C 293.263,75.209 293.596,74.209 294.5,73.5 Z"/></g>
<g><path style="opacity:1" fill="#945932" d="M 239.5,76.5 C 238.078,77.925 236.411,78.925 234.5,79.5C 235.66,77.7973 234.993,77.1307 232.5,77.5C 234.308,76.6059 236.142,75.6059 238,74.5C 239.03,74.8361 239.53,75.5028 239.5,76.5 Z"/></g>
<g><path style="opacity:0.663" fill="#6a4f3c" d="M 199.5,76.5 C 199.389,77.1174 199.056,77.6174 198.5,78C 199.793,78.49 201.127,78.6567 202.5,78.5C 201.081,79.4511 199.415,79.7845 197.5,79.5C 197.285,77.8212 197.952,76.8212 199.5,76.5 Z"/></g>
<g><path style="opacity:0.31" fill="#483529" d="M 259.5,77.5 C 260.833,77.8333 262.167,78.1667 263.5,78.5C 261.872,79.8528 260.538,79.5195 259.5,77.5 Z"/></g>
<g><path style="opacity:1" fill="#e91e26" d="M 114.5,82.5 C 115.803,84.1423 117.136,85.8089 118.5,87.5C 118.34,90.8835 118.673,94.2169 119.5,97.5C 119.054,102.114 116.554,104.448 112,104.5C 109.502,104.083 107.002,103.749 104.5,103.5C 103.041,103.567 101.708,103.234 100.5,102.5C 100.5,101.5 100.5,100.5 100.5,99.5C 101.833,99.5 103.167,99.5 104.5,99.5C 104.334,93.4908 104.501,87.4908 105,81.5C 105.725,80.9415 106.558,80.6082 107.5,80.5C 109.762,81.4669 112.095,82.1336 114.5,82.5 Z"/></g>
<g><path style="opacity:0.98" fill="#de7731" d="M 38.5,78.5 C 39.1667,78.5 39.5,78.8333 39.5,79.5C 38.8379,83.4659 38.5045,87.4659 38.5,91.5C 38.5,93.1667 38.5,94.8333 38.5,96.5C 38.6309,97.3764 38.2975,98.0431 37.5,98.5C 36.5059,93.544 36.1725,88.544 36.5,83.5C 36.5,82.5 36.5,81.5 36.5,80.5C 36.5,79.1667 37.1667,78.5 38.5,78.5 Z"/></g>
<g><path style="opacity:1" fill="#c11920" d="M 102.5,75.5 C 105.193,76.5515 107.86,77.5515 110.5,78.5C 111.833,79.8333 113.167,81.1667 114.5,82.5C 112.095,82.1336 109.762,81.4669 107.5,80.5C 106.558,80.6082 105.725,80.9415 105,81.5C 104.501,87.4908 104.334,93.4908 104.5,99.5C 103.167,99.5 101.833,99.5 100.5,99.5C 100.5,100.5 100.5,101.5 100.5,102.5C 97.7577,100.819 96.091,98.8193 95.5,96.5C 97.8333,96.5 100.167,96.5 102.5,96.5C 102.5,92.1667 102.5,87.8333 102.5,83.5C 102.5,80.8333 102.5,78.1667 102.5,75.5 Z"/></g>
<g><path style="opacity:0.999" fill="#efefef" d="M 134.5,77.5 C 134.5,85.1667 134.5,92.8333 134.5,100.5C 133.504,100.586 132.671,100.252 132,99.5C 131.5,92.1742 131.334,84.8409 131.5,77.5C 132.5,77.5 133.5,77.5 134.5,77.5 Z"/></g>
<g><path style="opacity:1" fill="#b6b4b3" d="M 82.5,87.5 C 83.2506,86.4265 84.2506,86.2599 85.5,87C 84.6477,88.7284 83.6477,88.895 82.5,87.5 Z"/></g>
<g><path style="opacity:1" fill="#ba1a20" d="M 118.5,87.5 C 120.234,89.0904 121.4,91.0904 122,93.5C 122.499,97.8206 122.666,102.154 122.5,106.5C 116.18,106.6 110.18,105.6 104.5,103.5C 107.002,103.749 109.502,104.083 112,104.5C 116.554,104.448 119.054,102.114 119.5,97.5C 118.673,94.2169 118.34,90.8835 118.5,87.5 Z"/></g>
<g><path style="opacity:1" fill="#a3521b" d="M 44.5,61.5 C 44.8333,61.5 45.1667,61.5 45.5,61.5C 45.5,72.1667 45.5,82.8333 45.5,93.5C 52.0221,93.1765 58.3554,93.5098 64.5,94.5C 57.8333,94.5 51.1667,94.5 44.5,94.5C 44.5,83.5 44.5,72.5 44.5,61.5 Z"/></g>
<g><path style="opacity:0.999" fill="#787879" d="M 134.5,62.5 C 134.5,67.5 134.5,72.5 134.5,77.5C 133.5,77.5 132.5,77.5 131.5,77.5C 131.334,84.8409 131.5,92.1742 132,99.5C 132.671,100.252 133.504,100.586 134.5,100.5C 134.5,101.167 134.5,101.833 134.5,102.5C 133.504,102.586 132.671,102.252 132,101.5C 131.667,103.167 131.333,104.833 131,106.5C 130.333,94.1667 130.333,81.8333 131,69.5C 131.672,66.8223 132.839,64.489 134.5,62.5 Z"/></g>
<g><path style="opacity:0.911" fill="#494440" d="M 63.5,96.5 C 57.9335,96.2426 57.2668,97.5759 61.5,100.5C 55.8333,100.5 50.1667,100.5 44.5,100.5C 44.3284,99.5084 44.6618,98.8417 45.5,98.5C 43.8984,96.9261 41.8984,96.2594 39.5,96.5C 40.4687,95.6906 41.3021,94.6906 42,93.5C 49.0727,95.1263 56.2393,96.1263 63.5,96.5 Z"/></g>
<g><path style="opacity:1" fill="#2b0e06" d="M 102.5,83.5 C 102.5,87.8333 102.5,92.1667 102.5,96.5C 100.167,96.5 97.8333,96.5 95.5,96.5C 94.5,95.1667 93.5,95.1667 92.5,96.5C 89.1016,96.1796 85.7683,96.513 82.5,97.5C 82.8627,98.1835 83.1961,98.8501 83.5,99.5C 82.8333,102.167 82.1667,104.833 81.5,107.5C 81.6641,104.813 81.4974,102.146 81,99.5C 80.7645,97.8807 79.9311,96.8807 78.5,96.5C 79.1667,95.8333 79.8333,95.1667 80.5,94.5C 87.1667,94.5 93.8333,94.5 100.5,94.5C 101.167,90.8333 101.833,87.1667 102.5,83.5 Z"/></g>
<g><path style="opacity:0.522" fill="#625043" d="M 36.5,83.5 C 36.1725,88.544 36.5059,93.544 37.5,98.5C 38.2975,98.0431 38.6309,97.3764 38.5,96.5C 38.8333,96.5 39.1667,96.5 39.5,96.5C 39.5,97.5 39.5,98.5 39.5,99.5C 38.5,99.5 37.5,99.5 36.5,99.5C 35.1667,94.1667 35.1667,88.8333 36.5,83.5 Z"/></g>
<g><path style="opacity:0.778" fill="#c4c3c2" d="M 39.5,96.5 C 41.8984,96.2594 43.8984,96.9261 45.5,98.5C 44.6618,98.8417 44.3284,99.5084 44.5,100.5C 43.391,100.557 42.391,100.89 41.5,101.5C 40.8333,100.833 40.1667,100.167 39.5,99.5C 39.5,98.5 39.5,97.5 39.5,96.5 Z"/></g>
<g><path style="opacity:1" fill="#ebe7e9" d="M 63.5,96.5 C 67.8333,96.5 72.1667,96.5 76.5,96.5C 76.8304,102.01 76.1637,107.343 74.5,112.5C 73.8333,109.833 73.1667,107.167 72.5,104.5C 72.5,103.833 72.5,103.167 72.5,102.5C 73.0431,102.44 73.3764,102.107 73.5,101.5C 69.5546,100.509 65.5546,100.176 61.5,100.5C 57.2668,97.5759 57.9335,96.2426 63.5,96.5 Z"/></g>
<g><path style="opacity:0.019" fill="#0d0d0d" d="M 45.5,98.5 C 46.0478,97.2247 47.3812,96.558 49.5,96.5C 51.4809,96.4371 53.1476,97.1038 54.5,98.5C 51.3553,99.8032 48.3553,99.8032 45.5,98.5 Z"/></g>
<g><path style="opacity:1" fill="#d91e25" d="M 92.5,96.5 C 96.1739,100.219 97.1739,104.552 95.5,109.5C 93.9291,108.691 92.2624,108.357 90.5,108.5C 88.1359,105.476 85.8025,102.476 83.5,99.5C 83.1961,98.8501 82.8627,98.1835 82.5,97.5C 85.7683,96.513 89.1016,96.1796 92.5,96.5 Z"/></g>
<g><path style="opacity:1" fill="#ff812b" d="M 44.5,100.5 C 50.1667,100.5 55.8333,100.5 61.5,100.5C 65.5546,100.176 69.5546,100.509 73.5,101.5C 73.3764,102.107 73.0431,102.44 72.5,102.5C 61.9865,102.828 51.6532,102.494 41.5,101.5C 42.391,100.89 43.391,100.557 44.5,100.5 Z"/></g>
<g><path style="opacity:0.137" fill="#2c2825" d="M 36.5,99.5 C 37.5,99.5 38.5,99.5 39.5,99.5C 40.1667,100.167 40.8333,100.833 41.5,101.5C 51.6532,102.494 61.9865,102.828 72.5,102.5C 72.5,103.167 72.5,103.833 72.5,104.5C 72.5,105.167 72.1667,105.5 71.5,105.5C 61.4187,103.725 51.0854,102.892 40.5,103C 38.6763,102.34 37.343,101.173 36.5,99.5 Z"/></g>
<g><path style="opacity:1" fill="#d51d24" d="M 78.5,96.5 C 79.9311,96.8807 80.7645,97.8807 81,99.5C 81.4974,102.146 81.6641,104.813 81.5,107.5C 81.5654,107.938 81.3988,108.272 81,108.5C 78.7565,104.869 77.9232,100.869 78.5,96.5 Z"/></g>
<g><path style="opacity:1" fill="#110814" d="M 110.5,78.5 C 111.922,78.7086 113.255,79.2086 114.5,80C 122.479,87.4342 125.812,96.6009 124.5,107.5C 115.174,107.666 106.174,106.499 97.5,104C 98.4231,106.041 98.7564,108.208 98.5,110.5C 95.4467,110.889 92.78,110.223 90.5,108.5C 92.2624,108.357 93.9291,108.691 95.5,109.5C 97.1739,104.552 96.1739,100.219 92.5,96.5C 93.5,95.1667 94.5,95.1667 95.5,96.5C 96.091,98.8193 97.7577,100.819 100.5,102.5C 101.708,103.234 103.041,103.567 104.5,103.5C 110.18,105.6 116.18,106.6 122.5,106.5C 122.666,102.154 122.499,97.8206 122,93.5C 121.4,91.0904 120.234,89.0904 118.5,87.5C 117.136,85.8089 115.803,84.1423 114.5,82.5C 113.167,81.1667 111.833,79.8333 110.5,78.5 Z"/></g>
<g><path style="opacity:0.71" fill="#565698" d="M 72.5,104.5 C 73.1667,107.167 73.8333,109.833 74.5,112.5C 74.5,115.167 74.5,117.833 74.5,120.5C 73.5,120.5 72.5,120.5 71.5,120.5C 71.5,115.5 71.5,110.5 71.5,105.5C 72.1667,105.5 72.5,105.167 72.5,104.5 Z"/></g>
<g><path style="opacity:0.959" fill="#4249bf" d="M 79.5,118.5 C 97.5,118.5 115.5,118.5 133.5,118.5C 134.043,118.56 134.376,118.893 134.5,119.5C 116.132,120.179 97.7989,120.846 79.5,121.5C 76.9882,120.216 76.9882,119.216 79.5,118.5 Z"/></g>
</svg>
